<svg width="190" height="51" viewBox="0 0 190 51" fill="none" xmlns="http://www.w3.org/2000/svg">
<path fill-rule="evenodd" clip-rule="evenodd" d="M103.059 35.0039C105.859 35.0039 107.321 34.0638 107.321 32.0982C107.321 30.1754 105.814 29.1086 102.891 29.1086C101.807 29.1086 100.51 29.194 99.0893 29.4092V22.9156C100.258 23.0424 101.346 23.0851 102.433 23.0851C105.44 23.0851 106.942 22.1892 106.942 20.1397C106.942 18.1328 105.568 17.1928 102.725 17.1928C100.886 17.1928 98.5461 17.704 95.6647 18.6028V11.853C98.2129 10.9556 101.304 10.5283 104.939 10.5283C112.834 10.5283 117.386 13.988 117.386 19.4147C117.386 22.7462 115.256 25.1789 111.539 25.9907C115.673 26.8453 117.804 29.194 117.804 32.7819C117.804 38.4223 113.167 41.7081 104.312 41.7081C101.346 41.7081 98.4229 41.2837 95.4155 40.5573V33.5938C98.3809 34.4926 100.886 35.0039 103.059 35.0039ZM146.085 31.272C146.085 25.5413 141.868 21.6475 135.516 21.6475C132.92 21.6475 130.959 22.1182 129.169 23.4889C129.296 19.0374 131.554 17.0721 136.412 17.0721C138.843 17.0721 141.142 17.4144 143.527 18.1418V11.3384C140.931 10.7836 138.416 10.5283 136.072 10.5283C125.079 10.5283 118.983 16.4288 118.983 26.9105C118.983 36.1057 124.737 41.7081 133.685 41.7081C141.272 41.7081 146.085 37.4307 146.085 31.272ZM132.961 26.9932C135.008 26.9932 136.412 28.5778 136.412 31.0596C136.412 33.5384 135.049 35.0773 132.961 35.0773C130.916 35.0773 129.552 33.5384 129.552 31.0596C129.552 28.5336 130.916 26.9932 132.961 26.9932ZM169.603 10.5283H148.951V27.2457C150.689 26.823 152.341 26.5296 154.039 26.5296C158.026 26.5296 159.975 27.7497 159.975 30.1929C159.975 32.3833 158.11 33.5628 154.548 33.5628C152.81 33.5628 150.773 33.2679 148.442 32.6346V39.2887C151.493 40.0484 154.507 40.5089 157.558 40.5089C166.336 40.5089 170.831 36.9719 170.831 31.0354C170.831 25.2658 167.144 21.8567 160.314 21.8567C160.189 21.8567 159.93 21.871 159.553 21.8918C159.295 21.906 158.982 21.9233 158.62 21.941V17.5194H169.603V10.5283Z" fill="#FFE318"/>
<path fill-rule="evenodd" clip-rule="evenodd" d="M20 8H30.1108V20.1522C31.5488 18.1752 33.5228 17.2498 36.1938 17.2498C42.0715 17.2498 45.3995 21.3691 45.3995 28.6868C45.3995 35.668 42.0287 39.8324 36.4403 39.8324C33.0283 39.8324 30.7265 38.5705 29.4124 35.8798V39.5365H20V8ZM29.8227 28.4765C29.8227 31.6734 30.5211 33.2298 32.3298 33.2298C34.0971 33.2298 34.8781 31.6734 34.8781 28.4765C34.8781 25.2826 34.1384 23.7262 32.3298 23.7262C30.5211 23.7262 29.8227 25.2826 29.8227 28.4765ZM87.0605 17.5738H91.8806V24.1079H87.0605V29.4472C87.0605 32.1802 87.4856 33.462 89.5555 33.462C90.1068 33.462 90.8647 33.3765 91.7516 33.1614V39.5689C89.5145 40.2525 87.273 40.5089 84.907 40.5089C81.9897 40.5089 79.7482 39.5689 78.4377 37.9453C76.7474 35.809 76.7049 33.1202 76.7049 29.5341V24.1079H73.0268V17.5738H76.7049V12.619L87.0605 9.32911V17.5738ZM58.5033 31.4116H73.0268V30.0064C73.0268 21.6524 69.6204 17.7236 60.8889 17.7236C53.0082 17.7236 48.2812 21.9834 48.2812 29.0963C48.2812 36.3746 53.0939 40.5088 62.0381 40.5088C65.9142 40.5088 69.2364 39.971 71.6634 39.0209V33.5201C69.195 34.4302 66.638 34.8853 64.1682 34.8853C60.6333 34.8853 58.7588 33.7683 58.5033 31.4116ZM63.9126 26.5741V27.2332H58.4175V26.614C58.4175 24.1318 59.3541 22.7266 61.1872 22.7266C62.9746 22.7266 63.9126 24.1318 63.9126 26.5741Z" fill="white"/>
</svg>
