<svg width="190" height="51" viewBox="0 0 190 51" fill="none" xmlns="http://www.w3.org/2000/svg">
<path fill-rule="evenodd" clip-rule="evenodd" d="M149.038 24.6256H153.519V32.1829C151.445 33.6928 148.604 34.5005 145.99 34.5005C140.281 34.5005 136.107 30.5638 136.107 25.0157C136.107 19.4638 140.281 15.531 146.093 15.531C149.448 15.531 152.162 16.7054 153.929 18.8669L150.701 21.836C149.471 20.4548 148.064 19.8032 146.35 19.8032C143.279 19.8032 141.228 21.8633 141.228 25.0157C141.228 28.0902 143.276 30.2282 146.297 30.2282C147.243 30.2282 148.141 30.0449 149.038 29.6274V24.6256ZM128.784 34.1377L128.734 24.4696L124.126 32.3391H121.872L117.287 24.731V34.1377H112.602V15.8979H116.777L123.076 26.4243L129.221 15.8979H133.396L133.446 34.1377H128.784ZM172.872 24.4696L172.922 34.1377H177.587L177.537 15.8979H173.363L167.217 26.4243L160.918 15.8979H156.743V34.1377H161.428V24.731L166.009 32.3391H168.264L172.872 24.4696Z" fill="white"/>
<path fill-rule="evenodd" clip-rule="evenodd" d="M79.0261 29.2645C79.0261 32.3663 76.7719 34.1376 72.2903 34.1376H64.0439V15.8977H71.7765C75.7713 15.8977 78.0753 17.6183 78.0753 20.5874C78.0753 22.6708 76.975 24.052 75.3342 24.7309C77.6421 25.2537 79.0261 26.7909 79.0261 29.2645ZM65.9416 17.4856V24.1027H71.65C74.5176 24.1027 76.1815 22.983 76.1815 20.7942C76.1815 18.6054 74.5176 17.4856 71.65 17.4856H65.9416ZM72.2634 25.6946C75.4147 25.6946 77.1284 26.7363 77.1284 29.1084C77.1284 31.5079 75.4147 32.5496 72.2634 32.5457H65.9378V25.6946H72.2634ZM94.5794 32.4716V34.1376H81.9052V15.8977H94.1961V17.5637H83.799V24.052H93.069V25.6946H83.799V32.4677H94.5794V32.4716ZM96.2164 17.5637H102.515V34.1376H104.409V17.5637H110.708V15.8977H96.2164V17.5637Z" fill="white"/>
<rect x="11" y="2.0354" width="45" height="45.7966" fill="#292A2E"/>
<path fill-rule="evenodd" clip-rule="evenodd" d="M25.0135 6.26201C24.9145 4.94385 24.799 3.40588 23.9084 2.16469L26.8508 2.0354C28.6303 2.71333 29.7324 3.58677 31.0813 4.65572L31.0816 4.65593C31.2839 4.81627 31.4918 4.98101 31.7083 5.15015C29.2796 4.49978 26.9782 5.40873 25.0591 6.83486C25.0426 6.64993 25.0282 6.45841 25.0135 6.26201ZM44.6206 24.9942C44.6206 34.3346 40.2728 42.5035 33.5 47.824H56V2.16449H33.5C40.2728 7.35574 44.6206 15.6578 44.6206 24.9942ZM11.1274 10.9879L11.1389 10.9912C12.0309 11.2487 12.9191 11.505 13.8111 11.505C15.7301 10.7254 16.2398 9.16994 15.4714 7.09344C14.3207 5.40873 12.7878 4.49978 11.1236 4.1119V10.9879H11.1274ZM12.7878 17.602C13.5562 18.1193 14.5756 18.3819 15.7263 18.2526C16.2192 18.6105 16.8278 18.221 17.4884 17.7983C18.0285 17.4526 18.6034 17.0847 19.1783 17.0847C21.0974 16.8261 23.5262 16.5674 24.8043 18.2526L24.1633 16.9554C22.3755 16.8261 20.8387 16.1755 19.4332 15.3995C17.9175 14.698 16.8104 15.5824 15.7313 16.4445C14.809 17.1813 13.907 17.9018 12.7878 17.602ZM15.5989 17.9895H14.703C14.5756 17.4722 15.9811 16.5629 16.3634 17.2096L15.5989 17.9895ZM15.985 31.7411C13.9423 28.6264 13.3014 24.8652 13.3014 20.8454C15.4714 22.1422 18.5412 22.7887 21.3522 21.7543C18.6686 23.3097 15.985 25.6448 15.985 29.0182V31.7411ZM24.8043 46.7859C24.5494 47.1738 24.1633 47.5656 23.9084 47.8242L17.0044 47.6949C19.4333 44.7371 19.2632 40.7868 19.0906 36.7766C18.9451 33.398 18.7979 29.9768 20.2016 27.0709C20.2755 26.9585 20.3475 26.8487 20.418 26.7413C21.3222 25.3627 21.9766 24.3648 23.3987 22.9219L23.5262 23.0512C21.8619 25.1237 20.4564 27.0709 20.2016 29.6646C20.0961 32.3481 21.7419 34.5873 23.345 36.7687C25.6157 39.8581 27.8009 42.8314 24.8043 46.7859ZM14.9617 47.8242H11.1274L11 28.8849C11.6962 29.9214 12.4724 30.9364 13.2454 31.9471L13.2454 31.9471C16.7294 36.5029 20.146 40.9703 15.8576 46.9152L14.9617 47.8242ZM21.7384 2.16449H11.1274V2.94415C12.1507 3.07345 13.3014 3.46132 14.1972 3.85311C16.3711 5.14995 18.0315 7.22645 17.7766 9.82012L22.5068 9.30295C23.1478 7.74753 23.4026 5.28316 22.7616 3.98632C22.5029 3.20274 22.1206 2.55628 21.7384 2.16449ZM34.5233 23.3097C37.5892 26.2952 37.9714 30.8322 37.4617 35.1144C37.0756 41.8572 32.3455 45.4891 27.2369 47.832H25.5765C27.3643 44.9798 28.515 41.2186 26.8546 37.9745C29.6696 38.2331 32.0983 37.1949 33.7587 34.8598C33.9612 34.4488 33.6785 34.1987 33.3621 33.9186C33.2803 33.8463 33.1962 33.7719 33.1177 33.6922C32.8676 33.7871 32.6155 33.8858 32.3613 33.9854L32.3611 33.9855C30.5358 34.7006 28.6003 35.4588 26.4685 35.1184C26.0442 34.7603 25.5519 34.4318 25.0508 34.0975L25.0507 34.0974C23.7368 33.2207 22.3622 32.3035 21.9932 30.7068C22.097 30.1782 22.1348 29.6019 22.1731 29.0168C22.2759 27.4469 22.3829 25.8138 23.781 24.8691V25.3862C24.2495 25.4735 24.7176 25.6318 25.1854 25.7899L25.1854 25.7899L25.1855 25.79C26.1249 26.1076 27.0632 26.4248 28.0015 26.1659C28.7005 25.3838 29.5532 24.8747 30.4122 24.3618C31.1239 23.9369 31.8399 23.5094 32.4767 22.9219C32.8199 23.3539 33.3321 23.324 33.8254 23.2952C34.0703 23.2809 34.3106 23.2668 34.5233 23.3097ZM33.3687 25.3862L32.9864 26.4245L32.4767 25.1277C31.3261 25.3862 30.1754 25.778 29.5383 27.0749C29.4906 27.2201 29.4964 27.4021 29.5024 27.5866C29.5124 27.8949 29.5226 28.2099 29.2834 28.3717C28.7021 28.2739 28.7816 27.5077 28.8547 26.8029C28.8783 26.5761 28.9011 26.3557 28.9011 26.1659C29.797 25.2569 32.2258 23.3137 33.1216 24.0894C33.3687 24.2187 33.4961 24.8652 33.3687 25.3862ZM28.2563 34.7227C27.7533 34.3168 27.8043 33.6697 27.8496 33.0956C27.862 32.9381 27.874 32.7862 27.874 32.6462L28.2563 32.2583C28.6491 33.5308 29.4247 33.098 30.2606 32.6316C30.7887 32.337 31.3409 32.0289 31.8358 32.129C32.1366 32.0076 32.2393 31.743 32.3298 31.5097C32.4321 31.2459 32.5189 31.0221 32.859 31.0907C33.5741 33.3576 31.9152 33.7229 30.241 34.0915C29.5193 34.2504 28.7948 34.4099 28.2563 34.7227ZM29.6618 6.44698C35.4152 6.05911 39.7631 12.6726 41.1686 17.6013C42.4467 22.5301 42.9564 34.7227 36.952 40.0471C39.126 34.8559 40.0218 26.8163 35.6739 22.2754C35.3265 21.8206 35.289 21.2082 35.2517 20.5995C35.1933 19.6456 35.1354 18.7006 33.8861 18.3849C33.7537 18.5516 33.6299 18.7963 33.4995 19.0543C33.1243 19.7964 32.6935 20.6482 31.8396 20.0696C31.1149 19.581 30.2891 19.3473 29.4576 19.112C28.969 18.9737 28.4784 18.8349 28.0053 18.6435C28.5223 18.5127 29.1847 18.5735 29.8749 18.6369C31.2311 18.7614 32.6944 18.8957 33.3726 17.6052C33.2452 17.0881 32.9903 16.3084 32.3493 16.1791C31.4856 16.5286 31.3237 16.1695 31.1117 15.6992C31.01 15.4736 30.8968 15.2224 30.6889 15.0116C30.4298 14.9455 30.1562 14.8869 29.8769 14.827C28.4995 14.5319 26.9799 14.2064 26.3411 12.8058C27.0629 12.4382 27.5925 13.1038 28.1116 13.7562C28.3285 14.0287 28.5435 14.2989 28.7699 14.4905C29.1932 14.3187 29.1665 13.9738 29.1383 13.6101C29.124 13.4264 29.1094 13.2379 29.1521 13.0644C27.7466 11.7675 26.0824 10.4707 24.5494 9.56174C25.314 8.26098 27.4879 6.57628 29.6618 6.44698Z" fill="#C0A971"/>
</svg>
