<svg width="80" height="82" viewBox="0 0 80 82" fill="none" xmlns="http://www.w3.org/2000/svg">
<path fill-rule="evenodd" clip-rule="evenodd" d="M40.0064 70.2332C56.8361 60.1123 68.2608 41.2483 68.2608 19.9328C68.2608 19.7602 68.172 19.5986 68.0263 19.513C61.0581 15.4046 52.8873 12.6991 44.3084 12.0015C44.143 11.9883 43.9809 12.0628 43.8799 12.1985C41.6462 15.2069 39.7169 18.4666 38.1387 21.9289C38.0859 22.0452 38.1713 22.1774 38.296 22.174C38.778 22.1586 39.262 22.151 39.7474 22.151C46.1502 22.151 52.2521 23.4675 57.8136 25.8493C56.1819 38.9201 49.4564 50.3534 39.7474 57.984C37.7652 56.4258 35.9084 54.7096 34.1926 52.8528C34.0801 52.731 33.8808 52.8305 33.9066 52.9962C34.8529 59.1111 36.8107 64.88 39.5969 70.117C39.6769 70.266 39.8633 70.3196 40.0064 70.2332" fill="#0078FF"/>
<path fill-rule="evenodd" clip-rule="evenodd" d="M29.6877 47.8548C28.5544 46.2053 27.5181 44.4795 26.5883 42.6852C27.5276 42.2255 28.4947 41.8142 29.4843 41.4539C29.6654 41.3882 29.7901 41.2189 29.803 41.0216C30.0391 37.3714 30.6074 33.8141 31.4782 30.3828C31.5088 30.2639 31.4064 30.152 31.289 30.1772C28.3354 30.8103 25.5004 31.777 22.8228 33.0369C22.2076 30.7858 21.7464 28.4682 21.4514 26.0967C25.3173 24.4338 29.4443 23.288 33.7516 22.7437C33.9076 22.7234 34.0412 22.6199 34.103 22.4709C35.6012 18.8521 37.3761 15.6153 39.6033 12.2504C39.6732 12.1448 39.6 11.9993 39.4758 12C28.9105 12.0504 19.5938 14.8451 11.2509 19.7203C11.095 19.8112 11 19.9847 11 20.1694C11 38.6229 19.9179 56.0508 33.5495 66.7427C33.6825 66.847 33.8622 66.7029 33.7991 66.5441C31.5142 60.7987 30.1116 54.5845 29.7637 48.0801C29.7596 47.9996 29.7332 47.9213 29.6877 47.8548" fill="#0078FF"/>
</svg>
